<svg width="16" height="16" viewBox="0 0 16 16" fill="none" xmlns="http://www.w3.org/2000/svg">
<rect width="16" height="16" rx="4" fill="#090A0A"/>
<path d="M4.29768 5.72931L1.99988 7.06469L3.6114 7.99993L4.29768 7.60097V5.72931Z" fill="white"/>
<path d="M4.99939 5.32213V7.19379L7.99995 5.45117V3.58069L4.99939 5.32213Z" fill="white"/>
<path d="M11.701 5.73053V7.60101L12.3885 7.99996L14 7.06472L11.701 5.73053Z" fill="white"/>
<path d="M7.99988 3.58069V5.45117L9.38892 6.25737L10.9993 5.32213L7.99988 3.58069Z" fill="white"/>
<path d="M10.9993 5.32208L4.99939 8.80614L6.61091 9.74138L10.9993 7.19374V5.32208Z" fill="white"/>
<path d="M4.99939 10.6766L7.99995 12.4192V10.5475L4.99939 8.80609V10.6766Z" fill="white"/>
<path d="M1.99988 8.93517L4.29768 10.2694V8.39889L1.99988 7.0647V8.93517Z" fill="white"/>
<path d="M10.9993 10.6767V8.80621L7.99988 10.5477V12.4193L10.9993 10.6767Z" fill="white"/>
<path d="M14 7.0647L11.701 8.39889V10.2694L14 8.93517V7.0647Z" fill="white"/>
</svg>
