<svg width="145" height="44" viewBox="0 0 145 44" fill="none" xmlns="http://www.w3.org/2000/svg">
<path d="M8.31143 13.1973L0 18.0274L5.82907 21.4101L8.31143 19.9671V13.1973Z" fill="white"/>
<path d="M10.8491 11.7246V18.4944L21.7025 12.1913V5.42578L10.8491 11.7246Z" fill="white"/>
<path d="M35.0894 13.2019V19.9675L37.576 21.4105L43.405 18.0277L35.0894 13.2019Z" fill="white"/>
<path d="M21.7024 5.42578V12.1913L26.7267 15.1074L32.5515 11.7246L21.7024 5.42578Z" fill="white"/>
<path d="M32.5516 11.7244L10.8491 24.3263L16.6782 27.7091L32.5516 18.4942V11.7244Z" fill="white"/>
<path d="M10.8491 31.0917L21.7025 37.3948V30.625L10.8491 24.3262V31.0917Z" fill="white"/>
<path d="M0 24.7931L8.31143 29.619V22.8534L0 18.0276V24.7931Z" fill="white"/>
<path d="M32.5515 31.092V24.3264L21.7024 30.6252V37.3951L32.5515 31.092Z" fill="white"/>
<path d="M43.405 18.0276L35.0894 22.8534V29.619L43.405 24.7931V18.0276Z" fill="white"/>
<path d="M49.4137 13.3578H53.5053V16.1097C53.7384 15.7928 53.924 15.5064 54.1354 15.2459C55.0979 14.0566 56.328 13.2927 57.8257 12.9889C58.6155 12.8283 59.4183 12.8153 60.2254 12.9238C62.3446 13.2102 64.1617 14.0957 65.6292 15.667C66.7254 16.8389 67.4246 18.2235 67.7656 19.7948C68.0116 20.932 68.0591 22.0779 67.8519 23.2194C67.3038 26.2708 65.6205 28.4758 62.8194 29.791C61.6713 30.3292 60.4499 30.5592 59.1766 30.5679C57.079 30.5809 55.3785 29.7562 54.006 28.1893C53.8506 28.0113 53.6952 27.829 53.5139 27.6164C53.501 27.7205 53.488 27.7856 53.488 27.8507C53.488 30.1816 53.488 32.5168 53.488 34.8476C53.488 35.0039 53.4406 35.0473 53.2895 35.0473C52.1759 35.0473 51.0624 35.0473 49.9445 35.0473C49.7935 35.0473 49.6467 35.0473 49.5 35.0256C49.4655 35.0213 49.4137 34.9475 49.4137 34.9041C49.4093 33.424 49.405 31.9395 49.405 30.4594C49.405 24.9817 49.405 19.504 49.405 14.0263C49.405 13.8092 49.405 13.5879 49.405 13.3535L49.4137 13.3578ZM58.6069 26.8828C59.1205 26.8524 59.6298 26.8394 60.1262 26.6788C62.8884 25.7803 64.4768 22.7637 63.4107 19.9597C62.664 17.9935 61.2268 16.8346 59.1076 16.5958C58.2098 16.496 57.3423 16.6175 56.5222 17.0038C55.1238 17.6593 54.1743 18.7357 53.7254 20.2115C53.3542 21.4225 53.406 22.6422 53.9326 23.8141C54.6145 25.3333 55.7669 26.3272 57.3768 26.7483C57.7739 26.8524 58.1969 26.8438 58.6112 26.8872L58.6069 26.8828Z" fill="white"/>
<path d="M103.326 15.7495V13.3666H107.426C107.426 13.4273 107.426 13.4838 107.426 13.5402C107.426 18.9875 107.426 24.4305 107.426 29.8778C107.426 30.1035 107.426 30.1079 107.214 30.1079C105.95 30.1079 104.685 30.1035 103.425 30.0992C103.399 30.0992 103.373 30.0949 103.334 30.0905V27.3994C103.334 27.3994 103.313 27.3907 103.3 27.3864C103.183 27.547 103.062 27.7032 102.946 27.8682C102.139 29.0054 101.086 29.804 99.7648 30.2598C98.8196 30.5853 97.8528 30.6201 96.8774 30.5463C95.0819 30.4117 93.4849 29.7563 92.0865 28.6278C90.6493 27.4645 89.6911 25.9801 89.1861 24.1961C88.8754 23.0936 88.802 21.9651 88.9012 20.8279C89.0912 18.7271 89.9371 16.9258 91.4132 15.437C92.5526 14.2868 93.9338 13.5359 95.5048 13.1409C96.2127 12.9629 96.9291 12.8501 97.6542 12.8631C99.7432 12.8935 101.487 13.7008 102.855 15.3024C102.993 15.463 103.14 15.6193 103.278 15.7799C103.291 15.7756 103.304 15.7669 103.317 15.7625L103.326 15.7495ZM98.2067 26.8482C98.7851 26.8569 99.3461 26.8178 99.8943 26.6138C102.307 25.7153 103.714 23.315 103.252 20.7845C102.821 18.3972 100.848 16.7652 98.7807 16.5916C97.7535 16.5048 96.7824 16.6437 95.8544 17.1298C93.3727 18.4363 92.3498 21.5484 93.6489 24.0399C94.5985 25.8629 96.1134 26.8482 98.1981 26.8438L98.2067 26.8482Z" fill="white"/>
<path d="M140.677 15.7495V13.3666H144.777C144.777 13.4273 144.777 13.4838 144.777 13.5402C144.777 18.9875 144.777 24.4305 144.777 29.8778C144.777 30.1035 144.777 30.1079 144.566 30.1079C143.301 30.1079 142.036 30.1035 140.776 30.0992C140.75 30.0992 140.724 30.0949 140.686 30.0905V27.3994C140.686 27.3994 140.664 27.3907 140.651 27.3864C140.534 27.547 140.414 27.7032 140.297 27.8682C139.49 29.0054 138.437 29.804 137.116 30.2598C136.171 30.5853 135.204 30.6201 134.229 30.5463C132.433 30.4117 130.836 29.7563 129.438 28.6278C128.001 27.4645 127.042 25.9801 126.537 24.1961C126.227 23.0936 126.153 21.9651 126.253 20.8279C126.442 18.7271 127.288 16.9258 128.765 15.437C129.904 14.2868 131.285 13.5359 132.856 13.1409C133.564 12.9629 134.28 12.8501 135.006 12.8631C137.095 12.8935 138.838 13.7008 140.206 15.3024C140.345 15.463 140.491 15.6193 140.629 15.7799C140.642 15.7756 140.655 15.7669 140.668 15.7625L140.677 15.7495ZM135.558 26.8482C136.136 26.8569 136.697 26.8178 137.246 26.6138C139.658 25.7153 141.065 23.315 140.604 20.7845C140.172 18.3972 138.199 16.7652 136.132 16.5916C135.105 16.5048 134.134 16.6437 133.206 17.1298C130.724 18.4363 129.701 21.5484 131 24.0399C131.95 25.8629 133.465 26.8482 135.549 26.8438L135.558 26.8482Z" fill="white"/>
<path d="M73.385 23.5409C73.4239 23.6624 73.4498 23.7492 73.4843 23.8317C74.1101 25.3943 75.2496 26.3752 76.8508 26.8396C77.7443 27.0957 78.6377 27.0653 79.5354 26.831C80.8432 26.4881 81.9352 25.824 82.7078 24.6824C82.7207 24.6607 82.7423 24.6433 82.7639 24.613C82.7941 24.6303 82.8243 24.639 82.8459 24.6564C83.7005 25.4116 84.555 26.1712 85.4139 26.9264C85.5089 27.0089 85.5218 27.061 85.4312 27.1695C84.158 28.6974 82.561 29.7087 80.649 30.2426C79.3499 30.6072 78.0291 30.6766 76.7041 30.4683C73.562 29.9691 71.24 28.3067 69.8286 25.4246C69.3581 24.461 69.1208 23.428 69.0517 22.3559C68.9697 21.0755 69.1035 19.8254 69.5653 18.6231C70.4113 16.4224 71.9133 14.8208 74.0238 13.7921C75.0381 13.2973 76.1128 13.0065 77.2393 12.911C80.1138 12.6679 82.5696 13.5794 84.6025 15.6151C85.7247 16.7393 86.4584 18.0979 86.8253 19.6474C87.0023 20.3983 87.1361 21.1579 87.0713 21.9349C87.0325 22.434 86.9418 22.9288 86.8641 23.4237C86.8555 23.4671 86.7778 23.5278 86.726 23.5322C86.5145 23.5452 86.2987 23.5452 86.0872 23.5452C82.1078 23.5452 78.1327 23.5452 74.1533 23.5452C73.9116 23.5452 73.6656 23.5452 73.385 23.5452V23.5409ZM73.4368 20.0598H82.6862C82.3452 18.2628 80.6404 16.3704 78.1198 16.3747C75.6639 16.3747 73.8814 18.1413 73.4325 20.0598H73.4368Z" fill="white"/>
<path d="M126.395 13.3449C123.939 15.9449 121.505 18.5188 119.049 21.1187C121.483 24.0876 123.931 27.0739 126.395 30.0862C126.335 30.0949 126.287 30.1036 126.244 30.1036C124.673 30.1036 123.098 30.1036 121.526 30.1079C121.388 30.1079 121.315 30.0341 121.237 29.9386C120.163 28.6191 119.084 27.2996 118.005 25.9801C117.452 25.3073 116.9 24.6345 116.326 23.9314C116.231 24.0356 116.144 24.131 116.058 24.2265C115.583 24.7474 115.108 25.2683 114.642 25.7978C114.586 25.8629 114.547 25.9671 114.547 26.0495C114.543 27.3343 114.539 28.6191 114.547 29.8996C114.547 30.0558 114.504 30.1036 114.353 30.0992C113.102 30.0949 111.846 30.0949 110.594 30.0992C110.482 30.0992 110.438 30.0645 110.447 29.9517C110.451 29.8865 110.447 29.8214 110.447 29.7607C110.447 22.6943 110.447 15.628 110.447 8.56167V8.35767H114.534V20.255C114.655 20.1378 114.763 20.038 114.862 19.9338C116.563 18.1108 118.268 16.2878 119.968 14.4647C120.288 14.1218 120.611 13.7789 120.948 13.4491C121.017 13.3796 121.147 13.3319 121.246 13.3319C122.882 13.3319 124.518 13.3362 126.158 13.3406C126.227 13.3406 126.296 13.3406 126.399 13.3406L126.395 13.3449Z" fill="white"/>
</svg>
