<svg width="44" height="44" viewBox="0 0 44 44" fill="none" xmlns="http://www.w3.org/2000/svg">
<path d="M8.31143 13.4946L0 18.3247L5.82907 21.7075L8.31143 20.2645V13.4946Z" fill="white"/>
<path d="M10.8496 12.022V18.7918L21.703 12.4887V5.72314L10.8496 12.022Z" fill="white"/>
<path d="M35.0889 13.499V20.2646L37.5755 21.7076L43.4046 18.3248L35.0889 13.499Z" fill="white"/>
<path d="M21.7021 5.72314V12.4887L26.7265 15.4047L32.5513 12.022L21.7021 5.72314Z" fill="white"/>
<path d="M32.5521 12.022L10.8496 24.6239L16.6787 28.0067L32.5521 18.7918V12.022Z" fill="white"/>
<path d="M10.8496 31.3891L21.703 37.6922V30.9224L10.8496 24.6235V31.3891Z" fill="white"/>
<path d="M0 25.0908L8.31143 29.9166V23.151L0 18.3252V25.0908Z" fill="white"/>
<path d="M32.5513 31.3896V24.624L21.7021 30.9228V37.6927L32.5513 31.3896Z" fill="white"/>
<path d="M43.4046 18.3252L35.0889 23.151V29.9166L43.4046 25.0908V18.3252Z" fill="white"/>
</svg>
