<svg width="63" height="63" viewBox="0 0 63 63" fill="none" xmlns="http://www.w3.org/2000/svg">
<path d="M11.9094 18.9014L0.015625 25.8133L8.35714 30.6542L11.9094 28.5891V18.9014Z" fill="#5F62F0"/>
<path d="M15.543 16.7935V26.4813L31.0744 17.4614V7.77979L15.543 16.7935Z" fill="#5F62F0"/>
<path d="M50.2285 18.908V28.5896L53.7869 30.6546L62.1284 25.8138L50.2285 18.908Z" fill="#5F62F0"/>
<path d="M31.0723 7.77979V17.4614L38.2622 21.6343L46.5976 16.7935L31.0723 7.77979Z" fill="#5F62F0"/>
<path d="M46.5997 16.7937L15.543 34.8273L23.8845 39.6681L46.5997 26.4815V16.7937Z" fill="#5F62F0"/>
<path d="M15.543 44.5083L31.0744 53.5282V43.8404L15.543 34.8267V44.5083Z" fill="#5F62F0"/>
<path d="M0.015625 35.4954L11.9094 42.4012V32.7196L0.015625 25.8137V35.4954Z" fill="#5F62F0"/>
<path d="M46.5976 44.5085V34.8269L31.0723 43.8406V53.5284L46.5976 44.5085Z" fill="#5F62F0"/>
<path d="M62.1284 25.8137L50.2285 32.7196V42.4012L62.1284 35.4954V25.8137Z" fill="#5F62F0"/>
</svg>
